<?xml version="1.0" encoding="utf-8"?>
<!-- Generator: Adobe Illustrator 24.0.0, SVG Export Plug-In . SVG Version: 6.00 Build 0)  -->
<svg version="1.1" xmlns="http://www.w3.org/2000/svg" xmlns:xlink="http://www.w3.org/1999/xlink" x="0px" y="0px"
	 viewBox="0 0 500 500" style="enable-background:new 0 0 500 500;" xml:space="preserve">
<g id="Background_Simple">
	<g>
		<path style="fill:#92C1E3;" d="M411.57,305.3c-1.48,2.53-3,5-4.55,7.42c-0.97,1.52-1.94,3.01-2.94,4.48
			c-1.66,2.46-3.34,4.84-5.06,7.19c-0.05,0.08-0.11,0.14-0.16,0.22c-0.77,1.06-1.57,2.11-2.36,3.14c-0.71,0.93-1.42,1.83-2.14,2.74
			c-0.31,0.38-0.61,0.76-0.92,1.13c-0.12,0.16-0.25,0.32-0.38,0.48c-0.59,0.74-1.19,1.47-1.8,2.19c-0.81,0.97-1.61,1.92-2.43,2.87
			c-0.74,0.85-1.48,1.7-2.24,2.54c-0.39,0.44-0.77,0.86-1.17,1.29c-0.76,0.85-1.54,1.68-2.32,2.51c-0.89,0.96-1.8,1.9-2.71,2.83
			c-0.03,0.02-0.05,0.05-0.08,0.08c-0.87,0.88-1.76,1.77-2.64,2.63c-1.31,1.28-2.62,2.53-3.95,3.76c-1.65,1.53-3.32,3.02-5,4.47
			c-0.04,0.03-0.09,0.08-0.13,0.12c-1.94,1.67-3.9,3.28-5.88,4.86c-3.04,2.42-6.13,4.72-9.27,6.92c-1.05,0.73-2.09,1.45-3.15,2.16
			c-2.07,1.4-4.17,2.74-6.28,4.04c-0.07,0.03-0.13,0.08-0.2,0.12c-1.03,0.62-2.05,1.24-3.09,1.85c-0.07,0.03-0.14,0.07-0.21,0.11
			c-2.12,1.24-4.26,2.44-6.42,3.59c-0.76,0.4-1.52,0.81-2.28,1.2c-0.45,0.23-0.89,0.46-1.33,0.68c-1.01,0.52-2.03,1.03-3.06,1.52
			c-2.24,1.09-4.48,2.13-6.75,3.12c-1.13,0.49-2.28,0.98-3.42,1.45c-1.15,0.48-2.28,0.94-3.44,1.4c-1.15,0.45-2.29,0.88-3.45,1.32
			c-1.06,0.39-2.13,0.77-3.2,1.16c-0.38,0.14-0.77,0.27-1.16,0.4c-0.86,0.31-1.73,0.59-2.61,0.88c-1.17,0.38-2.33,0.76-3.5,1.12
			c-0.02,0.01-0.05,0.02-0.08,0.02c-3.32,1.04-6.64,1.97-10.01,2.83c-3.54,0.92-7.09,1.71-10.66,2.42v0.01
			c-50.3,10.09-103.58,1.85-147.93-18.65c-1.15-0.53-2.29-1.08-3.42-1.65c-0.57-0.28-1.13-0.57-1.69-0.86
			c-1.45-0.74-2.89-1.53-4.31-2.35c-0.65-0.36-1.3-0.74-1.94-1.12c-0.51-0.29-1.01-0.6-1.52-0.92c-0.43-0.25-0.86-0.52-1.29-0.8
			c-0.48-0.29-0.96-0.6-1.44-0.92c-3.04-1.96-6.01-4.07-8.88-6.3c-0.56-0.43-1.1-0.85-1.64-1.29c-0.37-0.29-0.74-0.6-1.11-0.91
			c-0.47-0.38-0.93-0.76-1.4-1.16c-0.98-0.83-1.95-1.67-2.91-2.54c-0.29-0.25-0.57-0.5-0.85-0.77c-0.43-0.37-0.84-0.75-1.25-1.15
			c-1.76-1.65-3.47-3.34-5.12-5.08c-0.29-0.31-0.59-0.62-0.88-0.94c-2.21-2.37-4.33-4.82-6.34-7.34c-0.53-0.67-1.05-1.33-1.56-2.01
			c-1.63-2.11-3.16-4.28-4.64-6.48c-0.41-0.63-0.83-1.27-1.23-1.9c-1.4-2.18-2.71-4.4-3.96-6.66c-0.39-0.72-0.79-1.45-1.17-2.18
			c-0.34-0.65-0.68-1.31-1-1.96c-1.19-2.37-2.29-4.77-3.31-7.21c-0.26-0.63-0.52-1.28-0.77-1.92c-1.44-3.64-2.69-7.37-3.74-11.16
			c-0.16-0.58-0.32-1.16-0.47-1.73c-0.01-0.05-0.02-0.11-0.04-0.16c-0.11-0.45-0.23-0.88-0.33-1.33c-0.16-0.67-0.33-1.33-0.47-2
			c-0.16-0.73-0.33-1.46-0.47-2.18c-0.19-0.91-0.36-1.82-0.51-2.74c-0.14-0.79-0.27-1.57-0.39-2.37c-0.13-0.82-0.24-1.64-0.35-2.46
			c-2.74-21.06,1.45-44.65,12.8-63.22c1.57-2.57,3.27-5.04,5.12-7.4c2.24-2.86,4.67-5.54,7.31-8.02c0.11-0.12,0.23-0.23,0.35-0.33
			c4.32-4.02,9.19-7.47,14.59-10.23c1.25-0.63,2.49-1.25,3.7-1.87c2.38-1.18,4.68-2.3,6.94-3.37c0.7-0.33,1.39-0.65,2.07-0.96
			c0.11-0.05,0.21-0.11,0.31-0.15c1.57-0.73,3.11-1.43,4.63-2.11c2.85-1.28,5.6-2.47,8.26-3.58c0.68-0.28,1.34-0.56,2.01-0.83
			c2.01-0.83,3.97-1.63,5.9-2.38c1.46-0.58,2.9-1.13,4.33-1.67c0.16-0.07,0.34-0.13,0.5-0.2c1.28-0.48,2.54-0.95,3.79-1.41
			c4.93-1.83,9.65-3.49,14.23-5.11c24.48-8.64,45.62-16.16,79.18-41.55c30.69-23.21,66.43-42.89,106.14-39.52
			c50.18,4.26,93.43,33.92,98.39,86.28C445.17,221.89,431.73,270.9,411.57,305.3z"/>
		<path style="opacity:0.7;fill:#FFFFFF;" d="M411.57,305.3c-1.48,2.53-3,5-4.55,7.42c-0.97,1.52-1.94,3.01-2.94,4.48
			c-1.66,2.46-3.34,4.84-5.06,7.19c-0.05,0.08-0.11,0.14-0.16,0.22c-0.77,1.06-1.57,2.11-2.36,3.14c-0.71,0.93-1.42,1.83-2.14,2.74
			c-0.31,0.38-0.61,0.76-0.92,1.13c-0.12,0.16-0.25,0.32-0.38,0.48c-0.59,0.74-1.19,1.47-1.8,2.19c-0.81,0.97-1.61,1.92-2.43,2.87
			c-0.74,0.85-1.48,1.7-2.24,2.54c-0.39,0.44-0.77,0.86-1.17,1.29c-0.76,0.85-1.54,1.68-2.32,2.51c-0.89,0.96-1.8,1.9-2.71,2.83
			c-0.03,0.02-0.05,0.05-0.08,0.08c-0.87,0.88-1.76,1.77-2.64,2.63c-1.31,1.28-2.62,2.53-3.95,3.76c-1.65,1.53-3.32,3.02-5,4.47
			c-0.04,0.03-0.09,0.08-0.13,0.12c-1.94,1.66-3.91,3.28-5.88,4.86c-3.04,2.42-6.13,4.72-9.27,6.92c-1.05,0.73-2.09,1.45-3.15,2.16
			c-2.07,1.39-4.17,2.73-6.28,4.04c-0.07,0.03-0.13,0.08-0.2,0.12c-1.03,0.62-2.05,1.24-3.09,1.85c-0.07,0.03-0.14,0.07-0.21,0.11
			c-2.12,1.24-4.27,2.44-6.42,3.59c-0.76,0.4-1.52,0.81-2.28,1.2c-0.45,0.23-0.89,0.46-1.33,0.68c-1.01,0.52-2.03,1.03-3.06,1.52
			c-2.24,1.09-4.5,2.13-6.75,3.12c-1.13,0.49-2.28,0.98-3.42,1.45c-1.15,0.48-2.28,0.94-3.44,1.4c-1.15,0.45-2.29,0.88-3.45,1.32
			c-1.06,0.39-2.13,0.77-3.2,1.16c-0.38,0.14-0.77,0.27-1.16,0.4c-0.86,0.31-1.73,0.59-2.61,0.88c-1.17,0.38-2.33,0.76-3.5,1.12
			c-0.02,0.01-0.05,0.02-0.08,0.02c-3.32,1.04-6.64,1.97-10.01,2.83c-3.54,0.92-7.09,1.71-10.66,2.42v0.01
			c-50.3,10.09-103.58,1.85-147.93-18.65c-1.15-0.53-2.29-1.08-3.42-1.65c-0.57-0.28-1.13-0.57-1.69-0.86
			c-1.45-0.74-2.89-1.53-4.31-2.35c-0.65-0.36-1.3-0.74-1.94-1.12c-0.51-0.29-1.01-0.6-1.52-0.92c-0.43-0.25-0.86-0.52-1.29-0.8
			c-0.48-0.29-0.96-0.6-1.44-0.92c-3.04-1.96-6.01-4.07-8.88-6.3c-0.56-0.43-1.1-0.85-1.64-1.29c-0.37-0.29-0.74-0.6-1.11-0.91
			c-0.47-0.38-0.93-0.76-1.4-1.16c-0.98-0.83-1.95-1.67-2.91-2.54c-0.29-0.25-0.57-0.5-0.85-0.77c-0.43-0.37-0.84-0.75-1.25-1.15
			c-1.76-1.65-3.47-3.34-5.12-5.08c-0.29-0.31-0.59-0.62-0.88-0.94c-2.21-2.37-4.33-4.82-6.34-7.34c-0.53-0.67-1.05-1.33-1.56-2.01
			c-1.63-2.11-3.16-4.28-4.64-6.48c-0.41-0.63-0.83-1.27-1.23-1.9c-1.4-2.18-2.71-4.4-3.96-6.66c-0.39-0.72-0.79-1.45-1.17-2.18
			c-0.34-0.65-0.68-1.31-1-1.96c-1.19-2.37-2.29-4.77-3.31-7.21c-0.26-0.63-0.52-1.28-0.77-1.92c-1.44-3.64-2.69-7.37-3.74-11.16
			c-0.16-0.58-0.32-1.16-0.47-1.73c-0.01-0.05-0.02-0.11-0.04-0.16c-0.11-0.45-0.23-0.88-0.33-1.33c-0.16-0.67-0.33-1.33-0.47-2
			c-0.16-0.73-0.33-1.46-0.47-2.18c-0.19-0.91-0.36-1.82-0.51-2.74c-0.14-0.79-0.27-1.57-0.39-2.37c-0.13-0.82-0.24-1.64-0.35-2.46
			c-2.74-21.06,1.45-44.65,12.8-63.22c1.57-2.57,3.27-5.04,5.12-7.4c2.24-2.86,4.67-5.54,7.31-8.02c0.11-0.12,0.23-0.23,0.35-0.33
			c4.32-4.02,9.19-7.47,14.59-10.23c1.25-0.63,2.49-1.25,3.7-1.87c2.38-1.18,4.68-2.3,6.94-3.37c0.7-0.33,1.39-0.65,2.07-0.96
			c0.11-0.05,0.21-0.11,0.31-0.15c1.57-0.73,3.11-1.43,4.63-2.11c2.85-1.28,5.6-2.47,8.26-3.58c0.68-0.28,1.34-0.56,2.01-0.83
			c2.01-0.83,3.97-1.63,5.9-2.38c1.46-0.58,2.9-1.13,4.33-1.67c0.16-0.07,0.34-0.13,0.5-0.2c1.28-0.48,2.54-0.95,3.79-1.41
			c4.93-1.83,9.65-3.49,14.23-5.11c24.48-8.64,45.62-16.16,79.18-41.55c30.69-23.21,66.43-42.89,106.14-39.52
			c50.18,4.26,93.43,33.92,98.39,86.28C445.17,221.89,431.73,270.9,411.57,305.3z"/>
	</g>
	<path style="fill:#92C1E3;" d="M399.02,324.39c-26.85,36.52-61.64,59.26-99.1,70.9c-0.02,0.01-0.06,0.02-0.08,0.02
		c-3.31,1.04-6.64,1.97-10,2.83c-3.54,0.91-7.09,1.71-10.66,2.42v0.01c-50.3,10.09-103.57,1.86-147.93-18.65
		c-24.87-11.5-45.91-31.17-58.55-55.31c12.84-9.18,36.8-17.88,77.92-6.76c70.52,19.08,124.58,64.14,171.52,31.29
		C355.34,327.9,379.69,319.82,399.02,324.39z"/>
</g>
<g id="Shadow">
	<g>
		<ellipse style="fill:#92C1E3;" cx="250" cy="457.39" rx="133.72" ry="15.53"/>
		<ellipse style="opacity:0.5;fill:#FFFFFF;" cx="250" cy="457.39" rx="133.72" ry="15.53"/>
	</g>
</g>
<g id="Wind_Turbine_2">
	<g>
		<path style="fill:#FFFFFF;" d="M367.84,315.15c-0.02-0.02-0.04-0.04-0.06-0.07c-0.08-0.1-0.17-0.21-0.23-0.31
			c-0.15-0.19-0.29-0.36-0.42-0.53c0,0,0-0.01-0.01-0.01l-4.43-4.49c-0.03-0.03-0.07-0.06-0.1-0.09l-14.89-15.08
			c-0.05-0.05-0.09-0.1-0.13-0.15c-0.76-0.9-6.34-7.52-8.73-11.23c-0.03-0.04-0.05-0.08-0.07-0.12c-0.24-0.36-0.44-0.7-0.6-0.99
			c-0.29-0.54-0.71-1.14-1.24-1.77c-0.04-0.04-0.08-0.08-0.1-0.12c-2.35-2.76-6.64-6.16-10.55-8.3c-0.06-0.03-0.12-0.06-0.19-0.09
			c-0.85-0.45-1.66-0.85-2.45-1.17c-0.05-0.02-0.11-0.05-0.17-0.07c0,0,2.45-1.17,2.18-4.16c-0.01-0.08-0.02-0.17-0.04-0.25
			c0-0.06-0.01-0.12-0.03-0.19c-0.01-0.05-0.02-0.1-0.03-0.14c-0.63-2.51-3.8-5.91-6.63-7.86c-0.24-0.15-0.47-0.31-0.71-0.46
			c-0.22-0.14-0.42-0.27-0.63-0.37c-0.09-0.05-0.18-0.1-0.27-0.15h-0.01v-0.01l-0.78-7.53h-1.36l-0.4-4.64c0,0,0.03-1.83,0.1-4.75
			c0.01-0.15,0.01-0.31,0.02-0.46c0.18-7.01,0.59-19.63,1.33-28.65v-0.03c1.07-13.14,2.64-27.74,3.23-35.75
			c0.01-0.08,0.01-0.17,0.02-0.25c0-0.05,0-0.09,0.01-0.14c0.03-0.45,0.07-0.91,0.1-1.35c0.04-0.4,0.07-0.81,0.1-1.2
			c0.51-5.74,1.13-11.01,0.23-13.31c-0.18-0.47-0.42-0.83-0.75-1.03c-1.82-1.14-4.67,6.17-6.81,13.32v0.01
			c-0.41,1.39-0.8,2.8-1.16,4.12c-0.05,0.18-0.1,0.35-0.15,0.54c-1.56,5.9-5.29,20.45-7.37,31.98c-0.97,5.34-1.57,10.03-1.43,12.92
			c-0.01,0.01-0.01,0.03,0,0.05c0.45,9.24,1.09,10.03,3.35,17.02c2.15,6.64,2.59,10.83,2.63,11.23v0.03l-1.07,0.2l-0.87,0.17
			l-0.69,4.39c0,0-2.42-0.11-4.55,0.92c-0.76,0.35-1.5,0.87-2.06,1.57l-0.04-0.01c-0.12-0.03-0.47-0.11-1.03-0.23
			c0,0-0.01-0.01-0.02,0c-1.37-0.27-3.95-0.67-7.28-0.76c-2.4-0.05-5.19,0.05-8.18,0.51c-0.03,0-0.06,0.01-0.09,0.01
			c-8.21,1.26-15.39,3.91-17.99,5.49c-0.09,0.05-0.18,0.1-0.26,0.15c0,0-0.01,0-0.01,0.01c-0.09,0.05-0.19,0.11-0.27,0.2
			c-0.04,0.02-0.09,0.06-0.13,0.1c-0.03,0.02-0.06,0.04-0.09,0.07c-0.03,0.03-0.07,0.06-0.1,0.1c-0.04,0.04-0.07,0.07-0.1,0.11
			c-0.83,0.99-1.51,3.3-1.75,5.7v0.04c-0.15,1.53-0.13,3.09,0.15,4.35c0.05,0.26,0.12,0.49,0.2,0.68c0.01,0.03,0.01,0.04,0.01,0.04
			l9.86,0.58l4.51,0.27l6.08,0.35v0.01l-0.9,20.37c0,0-2.51,1.83-5.5,4.41c-2.23,1.94-4.72,4.28-6.64,6.61
			c-0.18,0.21-0.33,0.41-0.5,0.63c-0.21,0.28-0.41,0.56-0.62,0.84c-0.06,0.07-0.12,0.14-0.17,0.23c-2.22,3.14-4.99,8.09-7.42,12.59
			c-2.47,4.56-4.6,8.65-5.5,9.91c0,0-0.01,0.01-0.01,0.02c-1.06,1.49-2.99,5.33-4.95,8.84c-1.59,2.86-3.2,5.5-4.36,6.49
			c-0.01,0.01-0.03,0.02-0.04,0.03c-2.57,2.2-4.15,4.57-2.84,5.18c1.32,0.6,3.44,0.25,7.36-2.97c0.04-0.02,0.08-0.06,0.12-0.09
			c3.88-3.2,13.78-16.36,14.39-17.17c0.71-0.87,1.42-1.74,2.16-2.62c0.29-0.36,0.59-0.73,0.9-1.09c1.76-2.14,4.02-4.86,5.98-7.25
			c0.5-0.62,1.01-1.23,1.53-1.85c0.29-0.36,0.59-0.72,0.9-1.08c0.65-0.79,1.31-1.59,1.97-2.37c2.02-2.33,2.48-1.96,2.48-1.96
			l-0.15,3.64l-0.1,2.35v0.01l-3.66,132.75c3.27-0.65,6.53,0.84,9.77,0c3.08-0.78,9.13,0.95,12.17,0c0.02,0,0.05,0.01,0.07,0
			l-4.91-155.16v-0.24c0.05-0.05,0.09-0.09,0.13-0.14l2.18-2.39l11.2-12.32c0.03-0.04,0.06-0.07,0.1-0.1c0,0,0.21,0.15,0.52,0.31
			c0.51,0.26,1.3,0.52,1.95,0.1c1.04-0.68,3.22-5.44,3.22-5.44l2.89-0.74c0,0,0.02-0.01,0.07-0.02c0.01,0,0.02,0,0.03-0.01
			l1.41-0.36l1.21,1.14l7.46,6.93c0.1,0.09,0.21,0.2,0.31,0.29l40.77,37.89c0.02,0.02,0.04,0.03,0.06,0.05
			c0.25,0.29,2.57,2.81,4.07,2.06C372.74,321.7,369.39,317.13,367.84,315.15z M295.47,283.01c-0.24,0.27-0.44,0.52-0.64,0.73
			c-0.03,0.03-0.06,0.06-0.08,0.09c-0.41,0.46-0.7,0.78-0.79,0.9c-0.04,0.03-0.05,0.05-0.05,0.05v-9.72h0.05l0.88,0.01l5.36,0.03
			l0.29,1.19l0.04,0.18c-0.2,0.3-0.39,0.59-0.59,0.88C298.55,279.35,296.74,281.53,295.47,283.01z"/>
		<path style="fill:#92C1E3;" d="M320.18,272.7l-1.34,2.4l-1.22-1.13l-1.44,0.37c-0.04,0.01-0.07,0.02-0.07,0.02l-2.89,0.74
			c0,0-2.17,4.76-3.22,5.44c-0.65,0.42-1.45,0.16-1.96-0.1l0.68-1.78c0,0-1.53-4.75-6.77-4.4l-0.46,2.87c0,0-2.04-3.35-1.96-3.82
			c0.09-0.47-2.82-3.55-3.27-8.06c-0.45-4.51,1.77-13.33,13.31-10.94c0,0-3.73,0.36-5.24,6.52
			C302.83,267.02,311.95,271.38,320.18,272.7z"/>
		<polygon style="fill:#92C1E3;" points="280.34,317.89 291.32,306.45 290.27,299.38 281.03,310.78 		"/>
		<path style="fill:#92C1E3;" d="M288.18,265.89v-1.48l6.29,6.21l-0.51,4.11v10.35c-1.63,1.64-4.41,3.88-5.72,4.9
			C288.38,275.83,288.38,266.36,288.18,265.89z"/>
		<path style="fill:#92C1E3;" d="M298.83,450.49c-0.02,0.01-0.05,0-0.07,0c-3.03,0.95-9.09-0.78-12.17,0
			c0.33-18.91,0.76-95.81,1.11-119.41c0.1-6.8,0.2-13.46,0.28-19.74c0.01-0.49,0.02-0.96,0.02-1.43c0.04-2.69,0.07-5.32,0.1-7.84
			v-0.07l0.78-0.9l1.39-1.59l3.63-4.16l0.01-0.01L298.83,450.49z"/>
		<path style="fill:#92C1E3;" d="M371.51,322.32c-1.58,0.79-4.09-2.08-4.09-2.08l-49.79-46.27l-1.44,0.37
			c0.55-0.15,4.11-1.19,7.46-3.72c5.36,2.16,12.66,8.01,14.52,11.45c1.88,3.49,9.48,12.44,9.48,12.44l19.48,19.72
			C367.13,314.23,373.09,321.53,371.51,322.32z"/>
		<path style="fill:#92C1E3;" d="M296.56,261.71c0,0-29.36-1.73-32.5-0.27c-3.14,1.46-3.06,8.8-2.1,11.41l37.55,2.21l0.03-1.74
			l0.09-0.47C299.63,272.85,295.76,270.14,296.56,261.71z"/>
		<path style="fill:#92C1E3;" d="M305.58,274.73c0,0-5.42,11.73-12.57,16.8c-7.15,5.07-21.15,14.72-33.21,29.21
			c0,0,6.25-13.77,13.16-19.49c6.9-5.72,16.2-11.2,19.03-14.16c2.83-2.96,9.96-12.82,9.96-12.82L305.58,274.73z"/>
		<path style="fill:#92C1E3;" d="M312.28,171.48c-4.21,21.19-5.36,50.73-2.65,61.12c2.71,10.38,1.81,16.8,1.81,16.8h-4.3v-0.16
			l1.07-0.2c0,0-0.37-4.28-2.63-11.26c-2.27-6.99-2.9-7.78-3.36-17.03c-0.46-9.24,6.8-37.35,8.95-45.43
			c0.35-1.34,0.75-2.75,1.18-4.17C312.32,171.26,312.3,171.37,312.28,171.48z"/>
		<path style="fill:none;stroke:#292638;stroke-linecap:round;stroke-linejoin:round;stroke-miterlimit:10;" d="M305.58,253.79
			c-3.45,0.13-6.11,0.93-7.75,4.21c-2.42,4.82-2.17,11.24,1.81,14.85"/>
		<path style="fill:none;stroke:#292638;stroke-linecap:round;stroke-linejoin:round;stroke-miterlimit:10;" d="M313.22,275.1
			c6.45-1.28,12.19-4.83,12.42-8.09c0.23-3.17-3.59-7.5-8.83-10.33"/>
		<path style="fill:none;stroke:#292638;stroke-linecap:round;stroke-linejoin:round;stroke-miterlimit:10;" d="M317.31,256.96
			l-0.79-7.55h-10.26l-0.68,4.38c0,0,1.96-0.06,5.86,0.99"/>
		<path style="fill:none;stroke:#292638;stroke-linecap:round;stroke-linejoin:round;stroke-miterlimit:10;" d="M308.17,249.41
			c0,0,0.9-4.97-3.96-14.54c-4.86-9.56-0.05-32.12,4.03-48.36c4.08-16.24,7.5-27.97,10.92-28.69c3.42-0.72-2.88,41.32-3.24,59.54
			c-0.36,18.22-1.65,22.79-0.97,32.04"/>
		<path style="fill:none;stroke:#292638;stroke-linecap:round;stroke-linejoin:round;stroke-miterlimit:10;" d="M308.73,278.66
			c0,0-2.66-5.79-6.77-4.39c-3.48,5.37-7.6,11.49-12.88,15.21c-5.55,3.91-11.37,6.77-16.11,11.77c-4.64,4.9-8.32,10.65-11.57,16.55
			c-5.58,10.13-10.19,20.94-17.62,29.79c-0.63,0.75-1.31,1.78-0.81,2.62c0.57,0.95,2.02,0.63,3,0.11
			c6.09-3.24,9.81-9.34,14.08-14.52c3.38-4.11,6.74-8.23,10.12-12.33c7.76-9.41,15.56-18.8,23.5-28.06c3-3.51,6.01-7,9.1-10.43
			C303.21,284.47,308.87,278.97,308.73,278.66z"/>
		<path style="fill:none;stroke:#292638;stroke-linecap:round;stroke-linejoin:round;stroke-miterlimit:10;" d="M300.75,276.12
			c0,0-1.16-1.91-1.2-2.8c-0.05-0.89,1.96-3.74,1.96-3.74"/>
		<path style="fill:none;stroke:#292638;stroke-linecap:round;stroke-linejoin:round;stroke-miterlimit:10;" d="M307.53,280.12
			c0,0,1.98,0.92,2.73,0c0.75-0.92,3.27-5.59,3.27-5.59s-3.41-4.39-5.99-4.95"/>
		<path style="fill:none;stroke:#292638;stroke-linecap:round;stroke-linejoin:round;stroke-miterlimit:10;" d="M317.85,273.88
			c9.96,9.6,50.08,48.44,52.64,48.44c2.94,0-1.21-5.34-3.37-8.08c-2.15-2.75-22.7-20.98-28.37-31.18
			c-3.62-6.5-11.01-10.69-15.29-12.51"/>
		<path style="fill:none;stroke:#292638;stroke-linecap:round;stroke-linejoin:round;stroke-miterlimit:10;" d="M300.19,275.1
			l-8.57-0.5l-4.56-0.27l-10.74-0.63l-4.51-0.27l-9.86-0.58c0,0-1.68-9.03,2.1-11.41c2.56-1.62,10.31-3.87,16.23-5.2
			c2.84-0.64,5.27-1.07,6.5-1.11c1.04-0.03,2.48,0.04,4.01,0.18c1.9,0.16,3.94,0.41,5.58,0.63c0.76,0.1,2.06,0.12,2.58,0.19"/>
		
			<line style="fill:none;stroke:#292638;stroke-linecap:round;stroke-linejoin:round;stroke-miterlimit:10;" x1="281.5" y1="294.43" x2="282.4" y2="274.05"/>
		<polyline style="fill:none;stroke:#292638;stroke-linecap:round;stroke-linejoin:round;stroke-miterlimit:10;" points="
			280.79,310.7 280.6,315.28 280.59,315.38 280.48,317.73 280.48,317.74 276.82,450.49 276.82,450.49 		"/>
		<path style="fill:none;stroke:#292638;stroke-linecap:round;stroke-linejoin:round;stroke-miterlimit:10;" d="M298.76,450.49
			c-0.39-18.69-3.9-97.66-4.29-120.04c-0.12-7.04-0.24-13.82-0.34-20.08c-0.08-5.48-0.15-10.56-0.21-15.04c0-0.08,0-0.15,0-0.23
			v-0.01"/>
		<path style="fill:none;stroke:#292638;stroke-linecap:round;stroke-linejoin:round;stroke-miterlimit:10;" d="M293.96,274.73
			c-0.15-0.01-0.12,3.66-0.08,10.46"/>
		<path style="fill:#292638;" d="M290.8,255.31c-2.48,0.79-12.14,3.98-13.18,5.73c-1.45,2.45-1.39,9.64-1.29,12.66l-4.51-0.27
			c-0.09-3.68-0.04-10.68,1.44-13.15c1.21-1.44,4.15-2.89,7.04-4.04c2.84-0.64,5.27-1.07,6.5-1.11
			C287.83,255.1,289.26,255.17,290.8,255.31z"/>
		<path style="fill:#292638;" d="M298.96,256.29c0,0-5.8,2.65-6.85,5.47c-0.88,2.35-0.61,10.24-0.49,12.84l-4.56-0.27
			c0.01-3.29,0.09-11.08,0.56-13.1c0.58-2.58,8.76-5.29,8.76-5.29l1.95,0.27L298.96,256.29z"/>
		<path style="fill:none;stroke:#292638;stroke-linecap:round;stroke-linejoin:round;stroke-miterlimit:10;" d="M294.13,310.37
			c-1.43,0.33-4.35,0.9-8.06,1.1v19.46c0,0,4.42,0.65,8.4-0.48"/>
		<path style="fill:#292638;" d="M282.4,274.05c0,0,4.25,5.27,11.56,6.18l-0.06-5.71L282.4,274.05z"/>
		<g>
			<path style="opacity:0.1;" d="M293.92,295.33l-3.63,4.16l0,0l-0.02-0.11l-1.36,1.68l-0.01,0.01l-0.78,0.9v0.07l-7.08,8.73
				l-0.69,7.11l7.67-7.98c0,0.47-0.01,0.94-0.02,1.43c-0.08,6.29-0.18,12.94-0.28,19.74c-0.35,23.61-0.78,100.51-1.11,119.41
				c3.08-0.78,9.13,0.95,12.17,0c0.02,0,0.05,0.01,0.07,0l-4.9-155.17L293.92,295.33z"/>
			<path style="opacity:0.1;" d="M367.13,314.23l-19.48-19.72c0,0-7.6-8.95-9.48-12.44c-1.86-3.44-9.17-9.29-14.52-11.45
				c-1.19,0.9-2.4,1.6-3.49,2.15l0.04-0.07c-8.23-1.33-17.36-5.68-15.84-11.85c1.51-6.16,5.24-6.52,5.24-6.52
				c-8.91-1.85-12.26,3-13.12,7.37c-1.82-0.11-29.36-1.68-32.4-0.26c-3.14,1.46-3.06,8.8-2.1,11.41l26.38,1.55
				c0,4.04-0.04,9.36-0.1,15.58c1.06-0.83,3.07-2.45,4.67-3.91c-0.34,0.39-0.64,0.73-0.91,1.01c-2.83,2.96-12.13,8.44-19.03,14.16
				c-6.9,5.72-13.16,19.49-13.16,19.49c12.06-14.48,26.06-24.14,33.21-29.21c6.59-4.68,11.71-15.02,12.47-16.59
				c2.43,1.24,3.25,3.72,3.25,3.72l-0.68,1.78c0.51,0.25,1.3,0.51,1.96,0.1c1.04-0.68,3.22-5.44,3.22-5.44l2.89-0.74
				c0,0,0.03-0.01,0.07-0.02l1.44-0.37l49.79,46.27c0,0,2.51,2.87,4.09,2.08C373.09,321.53,367.13,314.23,367.13,314.23z
				 M298.91,272.14c-0.55-0.64-1.28-1.76-1.81-3.49C297.67,270.13,298.39,271.32,298.91,272.14z M293.96,284.82v-10.09l5.56,0.33
				l0.03-1.74l0,0c0,0,0,0,0,0c-0.05,0.28,0.65,1.57,1.22,2.57C299.16,278.09,296.22,282.05,293.96,284.82z M301.96,274.27
				L301.96,274.27c1.08-0.07,2,0.08,2.78,0.35L301.96,274.27z"/>
			<path style="opacity:0.1;" d="M305.58,237.79c2.26,6.98,2.63,11.26,2.63,11.26l-1.07,0.2v0.16h4.3c0,0,0.9-6.42-1.81-16.8
				c-2.71-10.39-1.56-39.93,2.65-61.12c0.02-0.11,0.04-0.22,0.06-0.32c-0.42,1.42-0.82,2.84-1.18,4.17
				c-2.15,8.08-9.41,36.19-8.95,45.43C302.68,230.01,303.31,230.8,305.58,237.79z"/>
		</g>
	</g>
</g>
<g id="Wind_Turbine_1">
	<g>
		<polygon style="fill:none;" points="218.47,238.84 222.1,234.56 218.46,238.56 		"/>
		<path style="fill:#FFFFFF;" d="M319.11,237.53l-13.06-10.65c0,0-19.43-19.57-22.5-25.25c-3.03-5.6-7.91-10.12-16.64-13.63
			c-0.09-0.04-0.19-0.08-0.28-0.11c0,0,3.99-1.9,3.55-6.77c-0.43-4.87-8.22-12.64-13.6-15.35l-1.28-12.28h-2.22l-0.66-7.54
			c0,0,0.61-33.79,2.37-55.16c1.75-21.38,3.34-32.11,4.3-45.14c0.95-13.04,2.69-10.45-0.86-12.66
			c-2.96-1.84-10.64,19.41-11.22,21.59c-3.5,13.14-12.97,39.37-12.97,54.41c0,12.84-1.91,17.73,3.41,25.6
			c6.69,9.9,4.28,18.32,4.28,18.32l-1.74,0.32l-1.42,0.26l-0.64,4.06l-0.47,3.09c0,0-7.24-0.33-10.79,4.06c0,0-11.87-3.1-27-0.82
			c-15.14,2.28-28.18,7.51-30.73,9.83c-2.55,2.31-4.48,12.63-2.6,17.94l33.33,1.95l-0.01,0.16l18.75,1.55v-0.07l1.52,0.01l8.74,0.05
			l0.21,0.87l0.98,0.08l-0.98-0.08l1.93,2.07c-2.33,3.63-6.64,7.6-9.02,10.36c-1.52,1.74-3.38,2.45-3.38,2.45v-0.16
			c-3,3.11-8.08,8.09-12.1,10.67c-3.11,1.99-6.99,4.6-10.06,6.68c-3.96,3.04-10.1,9.97-15.67,19.6
			c-5.82,10.06-16.36,27.23-21.96,34.2c-2.54,7.21,11.22-2.53,11.22-2.53s19.64-22.89,23.42-27.42c1.64-1.97,23.71-26.3,23.71-26.3
			l11.09-11.99l11.31-11.33c0,0,1.61,1.27,2.12,1.53c0.83,0.41,2.13,0.84,3.19,0.15c1.7-1.1,5.24-8.85,5.24-8.85l4.72-1.21
			c0,0,0.04-0.01,0.11-0.03l3.06-0.79l1.46,1.69l63.93,52.43l2.44,0.11l-1.05-3.17L319.11,237.53z"/>
		<polygon style="fill:#FFFFFF;" points="207.18,236.92 205.2,282.24 202.1,352.71 198.85,426.56 232.47,426.56 228.06,213.79 		"/>
		<path style="fill:none;" d="M218.42,221.77c0,0,1.04-1.14,2.56-2.88c0,0-1.01,1.11-2.56,2.72V221.77z"/>
		<path style="fill:none;" d="M220.98,218.89c2.37-2.76,5.9-7.02,8.24-10.65l-0.33-1.35l-0.21-0.87l-8.74-0.05l-1.52-0.01v0.07
			v15.58C219.97,220.01,220.98,218.89,220.98,218.89z"/>
		<path style="fill:#FFFFFF;" d="M228.06,211.47v-15.58l-18.75-1.55l-1.46,33c0,0-0.74,0.54-1.96,1.48
			c3.07-2.08,6.96-4.69,10.06-6.68C219.98,219.56,225.06,214.57,228.06,211.47z"/>
		<polygon style="fill:none;" points="228.68,206.02 219.94,205.97 218.42,205.96 218.42,206.03 228.89,206.89 		"/>
		<path style="fill:none;" d="M220.98,218.89c2.37-2.76,5.9-7.02,8.24-10.65l-0.33-1.35l-10.47-0.86v15.74
			C218.42,221.77,219.46,220.64,220.98,218.89z"/>
		<path style="fill:#92C1E3;" d="M261.28,191.4l-2.13,1.23l-2.04,0.84l-2.35,0.6c-0.07,0.02-0.11,0.03-0.11,0.03l-4.72,1.21
			c0,0-3.54,7.74-5.24,8.85c-1.06,0.68-4.67-0.52-5.49-0.93l3.12-3.84c0,0-0.87-5.86-8.61-5.17l-2.88,4.42c0,0-3.33-5.45-3.19-6.21
			c0.14-0.76-4.6-5.77-5.34-13.11c-0.73-7.34,2.89-21.69,21.7-17.79c0,0-6.08,0.59-8.54,10.62
			C232.98,182.15,247.86,189.24,261.28,191.4z"/>
		<polygon style="fill:#92C1E3;" points="206.32,248.9 224.22,230.3 222.65,219.78 207.45,237.34 		"/>
		<path style="fill:#92C1E3;" d="M219.09,180.31v-2.4l10.26,10.1l-0.84,6.69v16.83c-2.66,2.67-7.19,6.32-9.32,7.98
			C219.42,196.48,219.43,181.07,219.09,180.31z"/>
		<path style="fill:#92C1E3;" d="M232.47,450.49h-16.73c0.42-23.06,4.07-159.52,4.92-228.71l7.36-7.06L232.47,450.49z"/>
		<path style="fill:#92C1E3;" d="M324.98,247.81c-2.58,1.28-66.83-54.78-66.83-54.78l-1.31-0.66c0.9-0.25,4.88-0.67,10.34-4.77
			c8.73,3.51,15.3,11.3,18.33,16.9c3.07,5.68,20.06,20.07,20.06,20.07l16.06,15.77C321.64,240.35,327.56,246.52,324.98,247.81z"/>
		<path style="fill:#92C1E3;" d="M222.76,173.51c0,0-47.87-2.82-52.98-0.44c-5.12,2.38-4.98,14.32-3.43,18.57l61.22,3.59l0.05-2.83
			l0.14-0.76C227.77,191.64,221.46,187.23,222.76,173.51z"/>
		<path style="fill:#92C1E3;" d="M237.46,194.7c0,0-7.27,21.94-20.49,27.34c-24.15,9.86-34.08,30.66-53.74,54.22
			c0,0,13.99-23.18,21.78-35.54c11.52-18.28,23.88-23.51,29.61-26.93c13-7.76,19.07-19.58,19.07-19.58L237.46,194.7z"/>
		<path style="fill:#92C1E3;" d="M244.07,126.15c4.9,16.76,2.95,27.34,2.95,27.34H240v-0.26l1.74-0.32c0,0,2.09-4.65-3.34-15.29
			c-2.6-5.09-3.5-3.64-4.57-18.63c-1.07-15.01,12.14-67.88,20.51-82.5C255.47,34.53,234.96,94.97,244.07,126.15z"/>
		<path style="fill:none;stroke:#292638;stroke-linecap:round;stroke-linejoin:round;stroke-miterlimit:10;" d="M237.46,160.63
			c-5.63,0.21-9.95,1.52-12.64,6.85c-3.94,7.84-3.54,18.29,2.94,24.15"/>
		<path style="fill:none;stroke:#292638;stroke-linecap:round;stroke-linejoin:round;stroke-miterlimit:10;" d="M249.92,195.3
			c10.52-2.08,19.87-7.86,20.25-13.16c0.37-5.15-5.85-12.2-14.39-16.8"/>
		<path style="fill:none;stroke:#292638;stroke-linecap:round;stroke-linejoin:round;stroke-miterlimit:10;" d="M256.58,165.78
			l-1.28-12.28h-16.72l-1.12,7.13c0,0,3.19-0.11,9.56,1.62"/>
		<path style="fill:none;stroke:#292638;stroke-linecap:round;stroke-linejoin:round;stroke-miterlimit:10;" d="M242.19,153.5
			c0,0,1.32-6.54-5.79-19.13c-7.1-12.58-0.07-42.26,5.88-63.63c5.95-21.37,10.95-36.8,15.95-37.75c5-0.95-4.21,54.37-4.74,78.35
			c-0.53,23.98-2.41,29.99-1.42,42.16"/>
		<path style="fill:none;stroke:#292638;stroke-linecap:round;stroke-linejoin:round;stroke-miterlimit:10;" d="M242.31,199.37
			c0,0-3.39-6.81-8.61-5.17c-4.42,6.32-9.67,13.51-16.38,17.89c-7.05,4.6-14.46,7.96-20.49,13.85
			c-5.91,5.76-10.58,12.53-14.71,19.46c-7.09,11.91-12.96,24.63-22.4,35.04c-0.8,0.88-1.67,2.09-1.03,3.08
			c0.72,1.12,2.57,0.75,3.81,0.13c7.74-3.82,12.48-10.98,17.9-17.08c4.3-4.83,8.57-9.68,12.87-14.5
			c9.87-11.07,19.79-22.11,29.88-33.01c3.81-4.12,7.65-8.23,11.57-12.27C235.29,206.2,242.49,199.74,242.31,199.37z"/>
		<path style="fill:none;stroke:#292638;stroke-linecap:round;stroke-linejoin:round;stroke-miterlimit:10;" d="M229.59,196.95
			c0,0-1.89-3.11-1.96-4.55c-0.08-1.45,3.19-6.08,3.19-6.08"/>
		<path style="fill:none;stroke:#292638;stroke-linecap:round;stroke-linejoin:round;stroke-miterlimit:10;" d="M240.65,203.47
			c0,0,3.22,1.5,4.44,0s5.32-9.1,5.32-9.1s-5.56-7.14-9.77-8.05"/>
		<path style="fill:none;stroke:#292638;stroke-linecap:round;stroke-linejoin:round;stroke-miterlimit:10;" d="M257.82,193.02
			c12.66,11.13,63.29,54.87,66.54,54.87c3.73,0-1.54-6.19-4.28-9.37c-2.73-3.18-28.84-24.31-36.05-36.13
			c-4.6-7.53-11.96-12.39-17.4-14.49"/>
		<path style="fill:none;stroke:#292638;stroke-linecap:round;stroke-linejoin:round;stroke-miterlimit:10;" d="M228.68,195.3
			l-13.97-0.81l-7.43-0.44l-17.51-1.02l-7.35-0.43l-16.07-0.94c0,0-2.75-14.69,3.43-18.57c4.17-2.63,16.8-6.3,26.46-8.46
			c4.63-1.04,8.59-1.74,10.59-1.81c1.7-0.05,4.04,0.07,6.53,0.29c3.1,0.27,6.43,0.67,9.1,1.02c1.24,0.15,3.35,0.19,4.21,0.31"/>
		
			<line style="fill:none;stroke:#292638;stroke-linecap:round;stroke-linejoin:round;stroke-miterlimit:10;" x1="208.7" y1="217.01" x2="209.67" y2="194.99"/>
		<path style="fill:none;stroke:#292638;stroke-linecap:round;stroke-linejoin:round;stroke-miterlimit:10;" d="M228.06,213.79
			c0.78,66.09,4.4,236.7,4.4,236.7h-33.61l8.33-213.57"/>
		<path style="fill:#292638;" d="M213.36,163.09c-4.05,1.29-19.79,6.47-21.49,9.33c-2.36,3.98-2.26,15.68-2.11,20.59l-7.35-0.43
			c-0.14-5.99-0.07-17.37,2.34-21.4c1.97-2.34,6.76-4.7,11.48-6.57c4.63-1.04,8.59-1.74,10.59-1.81
			C208.53,162.75,210.87,162.88,213.36,163.09z"/>
		<path style="fill:#292638;" d="M226.68,164.69c0,0-9.45,4.31-11.17,8.9c-1.43,3.82-1,16.66-0.81,20.89l-7.43-0.44
			c0.02-5.35,0.15-18.02,0.91-21.31c0.95-4.2,14.28-8.61,14.28-8.61l3.18,0.43L226.68,164.69z"/>
		<path style="fill:none;stroke:#292638;stroke-linecap:round;stroke-linejoin:round;stroke-miterlimit:10;" d="M228.8,263.41
			c-2.33,0.53-7.1,1.46-13.15,1.78v31.66c0,0,7.21,1.06,13.7-0.78"/>
		<path style="fill:#292638;" d="M228.48,201.5c-0.93,1.02-1.95,2.08-2.85,3.01c-10.18-2.45-16.23-10.35-16.23-10.35l19.02,1.59
			L228.48,201.5z"/>
	</g>
</g>
<g id="Plants">
	<g>
		<g>
			<path style="fill:#92C1E3;" d="M343.71,457.39c0.68-5.28,1.05-15-4.27-20.3c-7.55-7.55-18.87,4.71-21.7,4.71
				c-2.83,0-3.78-7.54-12.27-14.15c-8.49-6.61-18.87,1.89-24.53,0c-5.66-1.89,4.72-31.13-11.32-32.07
				c-16.04-0.94-21.7,39.62-33,39.62c-11.3,0-13.21-7.55-24.53-0.94c-8.87,5.17-13.68,17.86-15.35,23.13H343.71z"/>
			<path style="opacity:0.2;" d="M343.71,457.39c0.68-5.28,1.05-15-4.27-20.3c-7.55-7.55-18.87,4.71-21.7,4.71
				c-2.83,0-3.78-7.54-12.27-14.15c-8.49-6.61-18.87,1.89-24.53,0c-5.66-1.89,4.72-31.13-11.32-32.07
				c-16.04-0.94-21.7,39.62-33,39.62c-11.3,0-13.21-7.55-24.53-0.94c-8.87,5.17-13.68,17.86-15.35,23.13H343.71z"/>
		</g>
		<g>
			
				<line style="fill:none;stroke:#292638;stroke-linecap:round;stroke-linejoin:round;" x1="227.49" y1="456.75" x2="217.89" y2="441.16"/>
			
				<line style="fill:none;stroke:#292638;stroke-linecap:round;stroke-linejoin:round;" x1="264.3" y1="456.34" x2="269.36" y2="408.67"/>
			
				<line style="fill:none;stroke:#292638;stroke-linecap:round;stroke-linejoin:round;" x1="293.53" y1="456.75" x2="298.47" y2="438.63"/>
			
				<line style="fill:none;stroke:#292638;stroke-linecap:round;stroke-linejoin:round;" x1="329.45" y1="456.75" x2="334.33" y2="444.95"/>
			<polyline style="fill:none;stroke:#292638;stroke-linecap:round;stroke-linejoin:round;" points="228.86,441.58 223.8,450.44 
				211.99,445.8 			"/>
			<polyline style="fill:none;stroke:#292638;stroke-linecap:round;stroke-linejoin:round;" points="261.77,412.47 267.67,423.02 
				275.69,413.31 			"/>
			<polyline style="fill:none;stroke:#292638;stroke-linecap:round;stroke-linejoin:round;" points="258.39,429.35 265.99,438.63 
				273.58,432.72 			"/>
			
				<line style="fill:none;stroke:#292638;stroke-linecap:round;stroke-linejoin:round;" x1="296.36" y1="446.64" x2="306.48" y2="440.74"/>
			
				<line style="fill:none;stroke:#292638;stroke-linecap:round;stroke-linejoin:round;" x1="295.52" y1="450.02" x2="290.45" y2="436.94"/>
			
				<line style="fill:none;stroke:#292638;stroke-linecap:round;stroke-linejoin:round;" x1="331.8" y1="451.28" x2="329.26" y2="442.84"/>
			
				<line style="fill:none;stroke:#292638;stroke-linecap:round;stroke-linejoin:round;" x1="330.95" y1="452.97" x2="338.12" y2="450.02"/>
		</g>
	</g>
</g>
<g id="Clouds">
	<g>
		<path style="fill:none;stroke:#292638;stroke-miterlimit:10;" d="M431.18,143.73h41.24c0,0,2.01-6.08-5.31-10.07
			c-7.31-3.99-10.64-0.67-13.31-3.99c-2.66-3.32,7.32-11.98-12.64-20.63c0,0-1.34-18.7-28.63-19.31
			c-27.29-0.61-19.96,18.7-27.29,23.37c-7.32,4.67-9.35-2.66-16.64,1.99c-7.29,4.66-3.99,14.02-9.97,15.3
			c-5.98,1.28-14.03-5.98-21.3-1.32c-7.28,4.66-7.32,8.65-10.66,8.65c-3.33,0-9.97-2.66-14.02,0c-4.05,2.66-8.66,6-8.66,6h118.77"/>
		<path style="fill:none;stroke:#292638;stroke-miterlimit:10;" d="M64.09,263.02h94.37c0,0-2.58-1.87-4.85-3.36
			c-2.27-1.49-5.99,0-7.86,0c-1.87,0-1.89-2.24-5.97-4.85c-4.08-2.61-8.58,1.46-11.94,0.74c-3.35-0.72-1.5-5.96-5.59-8.57
			c-4.09-2.61-5.22,1.5-9.32-1.12c-4.1-2.62,0-13.44-15.29-13.1c-15.29,0.34-16.04,10.82-16.04,10.82
			c-11.18,4.85-5.59,9.7-7.08,11.56c-1.49,1.86-3.36,0-7.46,2.24C62.96,259.62,64.09,263.02,64.09,263.02z"/>
	</g>
</g>
<g id="Wind">
	<g>
		<path style="fill:none;stroke:#292638;stroke-linecap:round;stroke-linejoin:round;stroke-miterlimit:10;" d="M377.84,197.07
			c8.21-0.18,16.5,0.84,24.38,2.92c11.17,2.94,21.87,7.81,33.32,9.37c11.45,1.56,24.44-0.97,31.46-10.14"/>
		<path style="fill:none;stroke:#292638;stroke-linecap:round;stroke-linejoin:round;stroke-miterlimit:10;" d="M334.64,212.31
			c9.85-8.38,22.15-13.09,35.03-14.66"/>
		<path style="fill:none;stroke:#292638;stroke-linecap:round;stroke-linejoin:round;stroke-miterlimit:10;" d="M447.41,223.99
			c7.69-1,14.94-4.16,19.59-10.22"/>
		<path style="fill:none;stroke:#292638;stroke-linecap:round;stroke-linejoin:round;stroke-miterlimit:10;" d="M334.64,226.86
			c18.14-15.43,44.55-18.39,67.58-12.32c11.17,2.94,21.87,7.81,33.32,9.37c2.12,0.29,4.29,0.44,6.47,0.43"/>
		<path style="fill:none;stroke:#292638;stroke-linecap:round;stroke-linejoin:round;stroke-miterlimit:10;" d="M420.47,234.83
			c4.95,1.56,9.94,2.93,15.08,3.63c11.45,1.56,24.44-0.97,31.46-10.14"/>
		<path style="fill:none;stroke:#292638;stroke-linecap:round;stroke-linejoin:round;stroke-miterlimit:10;" d="M386.5,226.42
			c5.32,0.42,10.6,1.32,15.72,2.67c5.13,1.35,10.16,3.11,15.2,4.76"/>
		<path style="fill:none;stroke:#292638;stroke-linecap:round;stroke-linejoin:round;stroke-miterlimit:10;" d="M334.64,241.41
			c11.18-9.51,25.5-14.28,40.23-15.13"/>
	</g>
</g>
</svg>
